<svg width="215" height="245" viewBox="0 0 215 245" fill="none" xmlns="http://www.w3.org/2000/svg">
<rect x="2" y="2" width="211" height="241" stroke="white" stroke-width="4"/>
<path d="M57.5 81.3H59.5V79.3H57.5V81.3ZM57.5 97V99H59.5V97H57.5ZM3 97H1V99H3V97ZM3 84.6L1.63397 83.1392L1 83.732V84.6H3ZM29.2 60.1L30.5661 61.5608L30.5755 61.5519L29.2 60.1ZM34.3 54L36.0744 54.9227L36.0818 54.9086L36.0889 54.8944L34.3 54ZM33.3 43.5L34.5738 41.9581L34.5738 41.9581L33.3 43.5ZM19.4 43.4L20.3383 45.1662L20.348 45.1611L20.3577 45.1558L19.4 43.4ZM14.1 48.4L13.1257 50.1466L14.774 51.0661L15.7873 49.4738L14.1 48.4ZM-0.6 40.2L-2.31276 39.1673L-3.38091 40.9389L-1.57431 41.9466L-0.6 40.2ZM10.9 29.5L9.96752 27.7307L9.96752 27.7307L10.9 29.5ZM42.5 28.2L41.7158 30.0399L41.7265 30.0444L42.5 28.2ZM52.1 35.7L50.4568 36.8402L50.4702 36.8594L50.484 36.8783L52.1 35.7ZM53.1 57.7L51.3042 56.8197L51.3005 56.8271L51.297 56.8345L53.1 57.7ZM43.7 69.1L42.3504 67.6239L42.3425 67.6312L43.7 69.1ZM30.5 81.3L29.1425 79.8312L25.3894 83.3H30.5V81.3ZM55.5 81.3V97H59.5V81.3H55.5ZM57.5 95H3V99H57.5V95ZM5 97V84.6H1V97H5ZM4.36603 86.0608L30.566 61.5608L27.834 58.6392L1.63397 83.1392L4.36603 86.0608ZM30.5755 61.5519C33.1566 59.1066 35.0517 56.8894 36.0744 54.9227L32.5256 53.0773C31.8149 54.4439 30.31 56.2934 27.8245 58.6481L30.5755 61.5519ZM36.0889 54.8944C37.0778 52.9165 37.6 50.8789 37.6 48.8H33.6C33.6 50.1878 33.2555 51.6168 32.5111 53.1056L36.0889 54.8944ZM37.6 48.8C37.6 46.0303 36.6346 43.6605 34.5738 41.9581L32.0262 45.0419C33.0321 45.8728 33.6 47.0364 33.6 48.8H37.6ZM34.5738 41.9581C32.546 40.283 29.7845 39.6 26.6 39.6V43.6C29.2822 43.6 30.9873 44.1837 32.0262 45.0419L34.5738 41.9581ZM26.6 39.6C23.6784 39.6 20.9473 40.2778 18.4423 41.6442L20.3577 45.1558C22.2527 44.1222 24.3216 43.6 26.6 43.6V39.6ZM18.4617 41.6338C15.9989 42.9421 13.9831 44.8585 12.4127 47.3262L15.7873 49.4738C17.0169 47.5415 18.5344 46.1246 20.3383 45.1662L18.4617 41.6338ZM15.0743 46.6534L0.374311 38.4534L-1.57431 41.9466L13.1257 50.1466L15.0743 46.6534ZM1.11276 41.2327C3.64773 37.0284 7.2035 33.7089 11.8325 31.2693L9.96752 27.7307C4.72983 30.4911 0.618937 34.305 -2.31276 39.1673L1.11276 41.2327ZM11.8325 31.2693C16.4245 28.8492 21.9248 27.6 28.4 27.6V23.6C21.4086 23.6 15.2422 24.9508 9.96752 27.7307L11.8325 31.2693ZM28.4 27.6C33.5182 27.6 37.9427 28.4316 41.7158 30.0398L43.2842 26.3602C38.924 24.5017 33.9484 23.6 28.4 23.6V27.6ZM41.7265 30.0444C45.5549 31.6498 48.4339 33.9248 50.4568 36.8402L53.7432 34.5598C51.2327 30.9419 47.7118 28.2169 43.2735 26.3556L41.7265 30.0444ZM50.484 36.8783C52.5481 39.7091 53.6 43.0222 53.6 46.9H57.6C57.6 42.2445 56.3186 38.0909 53.716 34.5217L50.484 36.8783ZM53.6 46.9C53.6 50.396 52.836 53.6947 51.3042 56.8197L54.8958 58.5803C56.6973 54.9053 57.6 51.004 57.6 46.9H53.6ZM51.297 56.8345C49.8595 59.8293 46.9432 63.4249 42.3505 67.6239L45.0495 70.5761C49.7901 66.2418 53.1406 62.2373 54.903 58.5655L51.297 56.8345ZM42.3425 67.6312L29.1425 79.8312L31.8575 82.7688L45.0575 70.5688L42.3425 67.6312ZM30.5 83.3H57.5V79.3H30.5V83.3ZM78.0656 94.1L79.1125 92.3958L79.1125 92.3958L78.0656 94.1ZM67.0656 81.6L65.2555 82.4505L65.2617 82.4637L65.2681 82.4768L67.0656 81.6ZM67.0656 42.5L65.2639 41.6317L65.2595 41.641L67.0656 42.5ZM78.0656 29.9L79.1125 31.6042L79.1125 31.6042L78.0656 29.9ZM109.966 29.9L108.919 31.6042L108.919 31.6042L109.966 29.9ZM120.866 42.5L119.055 43.3505L119.062 43.3637L119.068 43.3768L120.866 42.5ZM120.866 81.6L119.064 80.7317L119.059 80.741L120.866 81.6ZM109.966 94.1L108.919 92.3958L108.919 92.3958L109.966 94.1ZM101.966 77.4L100.26 76.3557L100.254 76.3658L101.966 77.4ZM101.966 46.7L100.244 47.7186L100.257 47.7395L100.27 47.76L101.966 46.7ZM85.9656 46.7L84.2599 45.6557L84.2538 45.6658L85.9656 46.7ZM85.9656 77.4L84.2445 78.4186L84.2568 78.4395L84.2696 78.46L85.9656 77.4ZM94.0656 96.4C88.3987 96.4 83.4345 95.0508 79.1125 92.3958L77.0188 95.8042C82.0301 98.8825 87.7326 100.4 94.0656 100.4V96.4ZM79.1125 92.3958C74.8046 89.7496 71.3823 85.8874 68.8632 80.7232L65.2681 82.4768C68.0823 88.246 71.9933 92.7171 77.0188 95.8042L79.1125 92.3958ZM68.8758 80.7495C66.4264 75.5367 65.1656 69.306 65.1656 62H61.1656C61.1656 69.7606 62.5049 76.5967 65.2555 82.4505L68.8758 80.7495ZM65.1656 62C65.1656 54.693 66.4267 48.4999 68.8718 43.359L65.2595 41.641C62.5046 47.4334 61.1656 54.2403 61.1656 62H65.1656ZM68.8673 43.3683C71.3885 38.1368 74.8109 34.2465 79.1125 31.6042L77.0188 28.1958C71.987 31.2868 68.0761 35.7965 65.2639 41.6317L68.8673 43.3683ZM79.1125 31.6042C83.4345 28.9492 88.3987 27.6 94.0656 27.6V23.6C87.7326 23.6 82.0301 25.1175 77.0188 28.1958L79.1125 31.6042ZM94.0656 27.6C99.6613 27.6 104.593 28.947 108.919 31.6042L111.012 28.1958C106.005 25.1197 100.337 23.6 94.0656 23.6V27.6ZM108.919 31.6042C113.215 34.2435 116.601 38.1276 119.055 43.3505L122.676 41.6495C119.93 35.8058 116.049 31.2898 111.012 28.1958L108.919 31.6042ZM119.068 43.3768C121.574 48.5131 122.866 54.6996 122.866 62H126.866C126.866 54.2337 125.491 47.4202 122.663 41.6232L119.068 43.3768ZM122.866 62C122.866 69.2994 121.574 75.5235 119.064 80.7317L122.667 82.4683C125.491 76.6098 126.866 69.7672 126.866 62H122.866ZM119.059 80.741C116.607 85.8966 113.222 89.7526 108.919 92.3958L111.012 95.8042C116.043 92.7141 119.924 88.2367 122.672 82.459L119.059 80.741ZM108.919 92.3958C104.593 95.053 99.6613 96.4 94.0656 96.4V100.4C100.337 100.4 106.005 98.8803 111.012 95.8042L108.919 92.3958ZM94.0656 84.2C98.1954 84.2 101.435 82.1465 103.677 78.4342L100.254 76.3658C98.63 79.0535 96.6025 80.2 94.0656 80.2V84.2ZM103.671 78.4443C105.965 74.6975 106.966 69.1076 106.966 62H102.966C102.966 68.8924 101.966 73.5692 100.26 76.3557L103.671 78.4443ZM106.966 62C106.966 54.898 105.967 49.3291 103.662 45.64L100.27 47.76C101.964 50.4709 102.966 55.102 102.966 62H106.966ZM103.687 45.6814C101.453 41.9072 98.2156 39.8 94.0656 39.8V43.8C96.5823 43.8 98.6115 44.9594 100.244 47.7186L103.687 45.6814ZM94.0656 39.8C89.8706 39.8 86.5686 41.8848 84.2599 45.6557L87.6713 47.7443C89.3626 44.9819 91.4606 43.8 94.0656 43.8V39.8ZM84.2538 45.6658C82.0295 49.3473 81.0656 54.9042 81.0656 62H85.0656C85.0656 55.0958 86.0351 50.4527 87.6775 47.7342L84.2538 45.6658ZM81.0656 62C81.0656 69.1013 82.0315 74.6794 84.2445 78.4186L87.6868 76.3814C86.0331 73.5872 85.0656 68.8987 85.0656 62H81.0656ZM84.2696 78.46C86.5873 82.1682 89.8904 84.2 94.0656 84.2V80.2C91.4409 80.2 89.344 79.0318 87.6616 76.34L84.2696 78.46Z" transform="translate(44 14)" fill="white"/>
<path d="M35.07 28.5H37.07V26.5H35.07V28.5ZM35.07 102V104H37.07V102H35.07ZM14.28 102H12.28V104H14.28V102ZM14.28 44.565H16.28V42.565H14.28V44.565ZM0.63 44.565H-1.37V46.565H0.63V44.565ZM0.63 28.5V26.5H-1.37V28.5H0.63ZM33.07 28.5V102H37.07V28.5H33.07ZM35.07 100H14.28V104H35.07V100ZM16.28 102V44.565H12.28V102H16.28ZM14.28 42.565H0.63V46.565H14.28V42.565ZM2.63 44.565V28.5H-1.37V44.565H2.63ZM0.63 30.5H35.07V26.5H0.63V30.5ZM106.919 61.575L105.617 63.0936L105.628 63.1026L106.919 61.575ZM110.804 90.975L109.103 89.9233L109.097 89.9321L110.804 90.975ZM100.094 100.11L100.945 101.92L100.957 101.914L100.094 100.11ZM66.9137 101.58L66.4286 103.52L66.4349 103.522L66.9137 101.58ZM53.8937 96.225L52.0882 95.3647L51.326 96.9642L52.8221 97.9137L53.8937 96.225ZM61.3487 80.58L62.4581 78.9159L60.5366 77.6349L59.5432 79.7197L61.3487 80.58ZM71.0087 85.095L70.434 87.0107L70.4444 87.0137L71.0087 85.095ZM90.2237 84.675L91.2938 86.3646L91.3009 86.3601L91.308 86.3556L90.2237 84.675ZM59.2487 71.445L57.256 71.2745L57.0703 73.445H59.2487V71.445ZM62.9237 28.5V26.5H61.0876L60.931 28.3295L62.9237 28.5ZM109.754 28.5H111.754V26.5H109.754V28.5ZM109.754 44.565V46.565H111.754V44.565H109.754ZM80.1437 44.565V42.565H78.3124L78.1514 44.3892L80.1437 44.565ZM79.1987 55.275L77.2065 55.0992L77.0145 57.275H79.1987V55.275ZM84.1337 57.275C94.2139 57.275 101.241 59.3426 105.617 63.0935L108.22 60.0565C102.796 55.4074 94.6335 53.275 84.1337 53.275V57.275ZM105.628 63.1026C110.111 66.891 112.374 71.913 112.374 78.375H116.374C116.374 70.837 113.667 64.659 108.21 60.0474L105.628 63.1026ZM112.374 78.375C112.374 82.5556 111.286 86.3911 109.103 89.9234L112.505 92.0266C115.081 87.8589 116.374 83.2944 116.374 78.375H112.374ZM109.097 89.9321C107.027 93.3188 103.785 96.1275 99.2308 98.3057L100.957 101.914C106.062 99.4725 109.96 96.1912 112.51 92.0179L109.097 89.9321ZM99.2421 98.3004C94.8236 100.38 89.2204 101.47 82.3487 101.47V105.47C89.617 105.47 95.8438 104.32 100.945 101.92L99.2421 98.3004ZM82.3487 101.47C77.3327 101.47 72.3484 100.86 67.3925 99.6382L66.4349 103.522C71.699 104.82 77.0048 105.47 82.3487 105.47V101.47ZM67.3988 99.6397C62.5253 98.4213 58.3919 96.7109 54.9654 94.5363L52.8221 97.9137C56.6755 100.359 61.2221 102.219 66.4286 103.52L67.3988 99.6397ZM55.6992 97.0853L63.1542 81.4403L59.5432 79.7197L52.0882 95.3647L55.6992 97.0853ZM60.2393 82.2441C63.3497 84.3177 66.7508 85.9057 70.434 87.0107L71.5834 83.1793C68.2666 82.1843 65.2277 80.7623 62.4581 78.9159L60.2393 82.2441ZM70.4444 87.0137C74.1898 88.1153 77.9497 88.67 81.7187 88.67V84.67C78.3477 84.67 74.9676 84.1747 71.573 83.1763L70.4444 87.0137ZM81.7187 88.67C85.5107 88.67 88.763 87.9675 91.2938 86.3646L89.1536 82.9854C87.4845 84.0425 85.0667 84.67 81.7187 84.67V88.67ZM91.308 86.3556C94.0118 84.6112 95.4787 82.0723 95.4787 78.9H91.4787C91.4787 80.6277 90.7756 81.9388 89.1395 82.9944L91.308 86.3556ZM95.4787 78.9C95.4787 75.7478 94.0604 73.2416 91.3577 71.62L89.2997 75.05C90.797 75.9484 91.4787 77.1522 91.4787 78.9H95.4787ZM91.3577 71.62C88.7498 70.0553 84.5475 69.445 79.1987 69.445V73.445C84.4899 73.445 87.7076 74.0947 89.2997 75.05L91.3577 71.62ZM79.1987 69.445H59.2487V73.445H79.1987V69.445ZM61.2414 71.6155L64.9164 28.6705L60.931 28.3295L57.256 71.2745L61.2414 71.6155ZM62.9237 30.5H109.754V26.5H62.9237V30.5ZM107.754 28.5V44.565H111.754V28.5H107.754ZM109.754 42.565H80.1437V46.565H109.754V42.565ZM78.1514 44.3892L77.2065 55.0992L81.191 55.4508L82.136 44.7408L78.1514 44.3892ZM79.1987 57.275H84.1337V53.275H79.1987V57.275Z" transform="translate(49 104)" fill="white"/>
</svg>
