<svg width="215" height="245" viewBox="0 0 215 245" fill="none" xmlns="http://www.w3.org/2000/svg">
<rect x="2" y="2" width="211" height="241" stroke="white" stroke-width="4"/>
<path d="M57.5 81.3H59.5V79.3H57.5V81.3ZM57.5 97V99H59.5V97H57.5ZM3 97H1V99H3V97ZM3 84.6L1.63397 83.1392L1 83.732V84.6H3ZM29.2 60.1L30.5661 61.5608L30.5755 61.5519L29.2 60.1ZM34.3 54L36.0744 54.9227L36.0818 54.9086L36.0889 54.8944L34.3 54ZM33.3 43.5L34.5738 41.9581L34.5738 41.9581L33.3 43.5ZM19.4 43.4L20.3383 45.1662L20.348 45.1611L20.3577 45.1558L19.4 43.4ZM14.1 48.4L13.1257 50.1466L14.774 51.0661L15.7873 49.4738L14.1 48.4ZM-0.6 40.2L-2.31276 39.1673L-3.38091 40.9389L-1.57431 41.9466L-0.6 40.2ZM10.9 29.5L9.96752 27.7307L9.96752 27.7307L10.9 29.5ZM42.5 28.2L41.7158 30.0399L41.7265 30.0444L42.5 28.2ZM52.1 35.7L50.4568 36.8402L50.4702 36.8594L50.484 36.8783L52.1 35.7ZM53.1 57.7L51.3042 56.8197L51.3005 56.8271L51.297 56.8345L53.1 57.7ZM43.7 69.1L42.3504 67.6239L42.3425 67.6312L43.7 69.1ZM30.5 81.3L29.1425 79.8312L25.3894 83.3H30.5V81.3ZM55.5 81.3V97H59.5V81.3H55.5ZM57.5 95H3V99H57.5V95ZM5 97V84.6H1V97H5ZM4.36603 86.0608L30.566 61.5608L27.834 58.6392L1.63397 83.1392L4.36603 86.0608ZM30.5755 61.5519C33.1566 59.1066 35.0517 56.8894 36.0744 54.9227L32.5256 53.0773C31.8149 54.4439 30.31 56.2934 27.8245 58.6481L30.5755 61.5519ZM36.0889 54.8944C37.0778 52.9165 37.6 50.8789 37.6 48.8H33.6C33.6 50.1878 33.2555 51.6168 32.5111 53.1056L36.0889 54.8944ZM37.6 48.8C37.6 46.0303 36.6346 43.6605 34.5738 41.9581L32.0262 45.0419C33.0321 45.8728 33.6 47.0364 33.6 48.8H37.6ZM34.5738 41.9581C32.546 40.283 29.7845 39.6 26.6 39.6V43.6C29.2822 43.6 30.9873 44.1837 32.0262 45.0419L34.5738 41.9581ZM26.6 39.6C23.6784 39.6 20.9473 40.2778 18.4423 41.6442L20.3577 45.1558C22.2527 44.1222 24.3216 43.6 26.6 43.6V39.6ZM18.4617 41.6338C15.9989 42.9421 13.9831 44.8585 12.4127 47.3262L15.7873 49.4738C17.0169 47.5415 18.5344 46.1246 20.3383 45.1662L18.4617 41.6338ZM15.0743 46.6534L0.374311 38.4534L-1.57431 41.9466L13.1257 50.1466L15.0743 46.6534ZM1.11276 41.2327C3.64773 37.0284 7.2035 33.7089 11.8325 31.2693L9.96752 27.7307C4.72983 30.4911 0.618937 34.305 -2.31276 39.1673L1.11276 41.2327ZM11.8325 31.2693C16.4245 28.8492 21.9248 27.6 28.4 27.6V23.6C21.4086 23.6 15.2422 24.9508 9.96752 27.7307L11.8325 31.2693ZM28.4 27.6C33.5182 27.6 37.9427 28.4316 41.7158 30.0398L43.2842 26.3602C38.924 24.5017 33.9484 23.6 28.4 23.6V27.6ZM41.7265 30.0444C45.5549 31.6498 48.4339 33.9248 50.4568 36.8402L53.7432 34.5598C51.2327 30.9419 47.7118 28.2169 43.2735 26.3556L41.7265 30.0444ZM50.484 36.8783C52.5481 39.7091 53.6 43.0222 53.6 46.9H57.6C57.6 42.2445 56.3186 38.0909 53.716 34.5217L50.484 36.8783ZM53.6 46.9C53.6 50.396 52.836 53.6947 51.3042 56.8197L54.8958 58.5803C56.6973 54.9053 57.6 51.004 57.6 46.9H53.6ZM51.297 56.8345C49.8595 59.8293 46.9432 63.4249 42.3505 67.6239L45.0495 70.5761C49.7901 66.2418 53.1406 62.2373 54.903 58.5655L51.297 56.8345ZM42.3425 67.6312L29.1425 79.8312L31.8575 82.7688L45.0575 70.5688L42.3425 67.6312ZM30.5 83.3H57.5V79.3H30.5V83.3ZM78.0656 94.1L79.1125 92.3958L79.1125 92.3958L78.0656 94.1ZM67.0656 81.6L65.2555 82.4505L65.2617 82.4637L65.2681 82.4768L67.0656 81.6ZM67.0656 42.5L65.2639 41.6317L65.2595 41.641L67.0656 42.5ZM78.0656 29.9L79.1125 31.6042L79.1125 31.6042L78.0656 29.9ZM109.966 29.9L108.919 31.6042L108.919 31.6042L109.966 29.9ZM120.866 42.5L119.055 43.3505L119.062 43.3637L119.068 43.3768L120.866 42.5ZM120.866 81.6L119.064 80.7317L119.059 80.741L120.866 81.6ZM109.966 94.1L108.919 92.3958L108.919 92.3958L109.966 94.1ZM101.966 77.4L100.26 76.3557L100.254 76.3658L101.966 77.4ZM101.966 46.7L100.244 47.7186L100.257 47.7395L100.27 47.76L101.966 46.7ZM85.9656 46.7L84.2599 45.6557L84.2538 45.6658L85.9656 46.7ZM85.9656 77.4L84.2445 78.4186L84.2568 78.4395L84.2696 78.46L85.9656 77.4ZM94.0656 96.4C88.3987 96.4 83.4345 95.0508 79.1125 92.3958L77.0188 95.8042C82.0301 98.8825 87.7326 100.4 94.0656 100.4V96.4ZM79.1125 92.3958C74.8046 89.7496 71.3823 85.8874 68.8632 80.7232L65.2681 82.4768C68.0823 88.246 71.9933 92.7171 77.0188 95.8042L79.1125 92.3958ZM68.8758 80.7495C66.4264 75.5367 65.1656 69.306 65.1656 62H61.1656C61.1656 69.7606 62.5049 76.5967 65.2555 82.4505L68.8758 80.7495ZM65.1656 62C65.1656 54.693 66.4267 48.4999 68.8718 43.359L65.2595 41.641C62.5046 47.4334 61.1656 54.2403 61.1656 62H65.1656ZM68.8673 43.3683C71.3885 38.1368 74.8109 34.2465 79.1125 31.6042L77.0188 28.1958C71.987 31.2868 68.0761 35.7965 65.2639 41.6317L68.8673 43.3683ZM79.1125 31.6042C83.4345 28.9492 88.3987 27.6 94.0656 27.6V23.6C87.7326 23.6 82.0301 25.1175 77.0188 28.1958L79.1125 31.6042ZM94.0656 27.6C99.6613 27.6 104.593 28.947 108.919 31.6042L111.012 28.1958C106.005 25.1197 100.337 23.6 94.0656 23.6V27.6ZM108.919 31.6042C113.215 34.2435 116.601 38.1276 119.055 43.3505L122.676 41.6495C119.93 35.8058 116.049 31.2898 111.012 28.1958L108.919 31.6042ZM119.068 43.3768C121.574 48.5131 122.866 54.6996 122.866 62H126.866C126.866 54.2337 125.491 47.4202 122.663 41.6232L119.068 43.3768ZM122.866 62C122.866 69.2994 121.574 75.5235 119.064 80.7317L122.667 82.4683C125.491 76.6098 126.866 69.7672 126.866 62H122.866ZM119.059 80.741C116.607 85.8966 113.222 89.7526 108.919 92.3958L111.012 95.8042C116.043 92.7141 119.924 88.2367 122.672 82.459L119.059 80.741ZM108.919 92.3958C104.593 95.053 99.6613 96.4 94.0656 96.4V100.4C100.337 100.4 106.005 98.8803 111.012 95.8042L108.919 92.3958ZM94.0656 84.2C98.1954 84.2 101.435 82.1465 103.677 78.4342L100.254 76.3658C98.63 79.0535 96.6025 80.2 94.0656 80.2V84.2ZM103.671 78.4443C105.965 74.6975 106.966 69.1076 106.966 62H102.966C102.966 68.8924 101.966 73.5692 100.26 76.3557L103.671 78.4443ZM106.966 62C106.966 54.898 105.967 49.3291 103.662 45.64L100.27 47.76C101.964 50.4709 102.966 55.102 102.966 62H106.966ZM103.687 45.6814C101.453 41.9072 98.2156 39.8 94.0656 39.8V43.8C96.5823 43.8 98.6115 44.9594 100.244 47.7186L103.687 45.6814ZM94.0656 39.8C89.8706 39.8 86.5686 41.8848 84.2599 45.6557L87.6713 47.7443C89.3626 44.9819 91.4606 43.8 94.0656 43.8V39.8ZM84.2538 45.6658C82.0295 49.3473 81.0656 54.9042 81.0656 62H85.0656C85.0656 55.0958 86.0351 50.4527 87.6775 47.7342L84.2538 45.6658ZM81.0656 62C81.0656 69.1013 82.0315 74.6794 84.2445 78.4186L87.6868 76.3814C86.0331 73.5872 85.0656 68.8987 85.0656 62H81.0656ZM84.2696 78.46C86.5873 82.1682 89.8904 84.2 94.0656 84.2V80.2C91.4409 80.2 89.344 79.0318 87.6616 76.34L84.2696 78.46Z" transform="translate(44 12)" fill="white"/>
<path d="M35.738 29.1H37.738V27.1H35.738V29.1ZM35.738 104V106H37.738V104H35.738ZM14.552 104H12.552V106H14.552V104ZM14.552 45.471H16.552V43.471H14.552V45.471ZM0.642 45.471H-1.358V47.471H0.642V45.471ZM0.642 29.1V27.1H-1.358V29.1H0.642ZM33.738 29.1V104H37.738V29.1H33.738ZM35.738 102H14.552V106H35.738V102ZM16.552 104V45.471H12.552V104H16.552ZM14.552 43.471H0.642V47.471H14.552V43.471ZM2.642 45.471V29.1H-1.358V45.471H2.642ZM0.642 31.1H35.738V27.1H0.642V31.1ZM103.605 59.274L102.698 61.0563L102.711 61.0629L102.724 61.0693L103.605 59.274ZM112.914 67.62L111.22 68.683L111.232 68.7025L111.245 68.7217L112.914 67.62ZM112.486 93.407L110.827 92.2906L110.822 92.2976L112.486 93.407ZM101.893 102.395L102.741 104.207L102.753 104.201L101.893 102.395ZM61.6613 95.975L60.2311 97.3731L60.2311 97.3731L61.6613 95.975ZM57.2743 46.541L55.5146 45.5904L55.5107 45.5977L57.2743 46.541ZM71.2913 32.417L70.3468 30.654L70.3468 30.654L71.2913 32.417ZM104.354 28.993L103.886 30.9374L103.886 30.9375L104.354 28.993ZM114.198 33.059L115.982 33.9635L116.79 32.3701L115.297 31.3882L114.198 33.059ZM106.494 48.253L105.341 49.8869L107.232 51.2215L108.278 49.1575L106.494 48.253ZM79.5303 48.895L78.1976 47.4037L78.1976 47.4037L79.5303 48.895ZM73.7523 61.842L71.7601 61.6655L71.3234 66.5936L75.0621 63.3534L73.7523 61.842ZM93.0123 87.843L91.6835 86.3482L91.6695 86.3607L91.6557 86.3734L93.0123 87.843ZM93.0123 74.04L91.6557 75.5096L91.6695 75.5223L91.6835 75.5348L93.0123 74.04ZM78.1393 74.147L79.468 75.6418L79.4832 75.6283L79.4981 75.6145L78.1393 74.147ZM78.0323 87.843L76.646 89.2847L76.6743 89.3118L76.7035 89.3378L78.0323 87.843ZM90.6583 58.278C95.0733 58.278 99.0749 59.2119 102.698 61.0563L104.513 57.4917C100.289 55.3414 95.6592 54.278 90.6583 54.278V58.278ZM102.724 61.0693C106.32 62.8346 109.139 65.3657 111.22 68.683L114.608 66.557C112.124 62.5983 108.737 59.5654 104.487 57.4787L102.724 61.0693ZM111.245 68.7217C113.365 71.9336 114.445 75.6453 114.445 79.925H118.445C118.445 74.9314 117.172 70.4398 114.583 66.5183L111.245 68.7217ZM114.445 79.925C114.445 84.6217 113.228 88.7211 110.827 92.2906L114.146 94.5234C117.023 90.2462 118.445 85.3577 118.445 79.925H114.445ZM110.822 92.2976C108.47 95.8266 105.227 98.5924 101.033 100.589L102.753 104.201C107.548 101.918 111.367 98.6914 114.15 94.5164L110.822 92.2976ZM101.046 100.583C96.9199 102.513 92.2568 103.498 87.0203 103.498V107.498C92.769 107.498 98.0213 106.414 102.741 104.207L101.046 100.583ZM87.0203 103.498C76.7401 103.498 68.8457 100.463 63.0914 94.5769L60.2311 97.3731C66.8888 104.184 75.9004 107.498 87.0203 107.498V103.498ZM63.0914 94.5769C57.3616 88.7153 54.3523 80.1566 54.3523 68.583H50.3523C50.3523 80.8348 53.549 90.5373 60.2311 97.3731L63.0914 94.5769ZM54.3523 68.583C54.3523 60.2773 55.9435 53.2693 59.0378 47.4843L55.5107 45.5977C52.0423 52.0821 50.3523 59.7687 50.3523 68.583H54.3523ZM59.0339 47.4916C62.2077 41.6167 66.6027 37.1977 72.2357 34.18L70.3468 30.654C63.9959 34.0563 59.0461 39.0533 55.5146 45.5904L59.0339 47.4916ZM72.2357 34.18C77.8927 31.1494 84.5133 29.602 92.1563 29.602V25.602C83.9632 25.602 76.6738 27.2646 70.3468 30.654L72.2357 34.18ZM92.1563 29.602C96.2911 29.602 100.199 30.0498 103.886 30.9374L104.822 27.0486C100.805 26.0815 96.5814 25.602 92.1563 25.602V29.602ZM103.886 30.9375C107.562 31.8223 110.619 33.098 113.099 34.7298L115.297 31.3882C112.356 29.4533 108.851 28.0184 104.822 27.0486L103.886 30.9375ZM112.414 32.1545L104.71 47.3485L108.278 49.1575L115.982 33.9635L112.414 32.1545ZM107.648 46.6191C103.596 43.7593 98.5644 42.401 92.6913 42.401V46.401C97.9461 46.401 102.116 47.6107 105.341 49.8869L107.648 46.6191ZM92.6913 42.401C86.8846 42.401 81.9891 44.0156 78.1976 47.4037L80.8629 50.3863C83.7768 47.7824 87.6553 46.401 92.6913 46.401V42.401ZM78.1976 47.4037C74.375 50.8196 72.2922 55.6604 71.7601 61.6655L75.7445 62.0185C76.211 56.7529 77.9802 52.9624 80.8629 50.3863L78.1976 47.4037ZM75.0621 63.3534C78.8988 60.0282 84.0317 58.278 90.6583 58.278V54.278C83.3035 54.278 77.1657 56.2371 72.4424 60.3306L75.0621 63.3534ZM85.7363 92.411C89.1353 92.411 92.0774 91.4277 94.3688 89.3126L91.6557 86.3734C90.2378 87.6823 88.3292 88.411 85.7363 88.411V92.411ZM94.341 89.3378C96.754 87.1929 97.9013 84.2984 97.9013 80.888H93.9013C93.9013 83.327 93.1225 85.0691 91.6835 86.3482L94.341 89.3378ZM97.9013 80.888C97.9013 77.5319 96.7426 74.68 94.341 72.5452L91.6835 75.5348C93.1339 76.824 93.9013 78.5374 93.9013 80.888H97.9013ZM94.3688 72.5704C92.0687 70.4472 89.0854 69.472 85.6293 69.472V73.472C88.3078 73.472 90.2465 74.2088 91.6557 75.5096L94.3688 72.5704ZM85.6293 69.472C82.1487 69.472 79.1376 70.4969 76.7804 72.6795L79.4981 75.6145C80.9929 74.2305 82.9752 73.472 85.6293 73.472V69.472ZM76.8105 72.6522C74.4089 74.787 73.2503 77.6389 73.2503 80.995H77.2503C77.2503 78.6444 78.0176 76.931 79.468 75.6418L76.8105 72.6522ZM73.2503 80.995C73.2503 84.2719 74.3652 87.0915 76.646 89.2847L79.4185 86.4013C77.99 85.0278 77.2503 83.2821 77.2503 80.995H73.2503ZM76.7035 89.3378C79.0794 91.4497 82.1615 92.411 85.7363 92.411V88.411C82.891 88.411 80.8371 87.6603 79.361 86.3482L76.7035 89.3378Z" transform="translate(48 102)" fill="white"/>
</svg>
