<svg width="215" height="245" viewBox="0 0 215 245" fill="none" xmlns="http://www.w3.org/2000/svg">
<rect x="2" y="2" width="211" height="241" stroke="white" stroke-width="4"/>
<path d="M57.5 81.3H59.5V79.3H57.5V81.3ZM57.5 97V99H59.5V97H57.5ZM3 97H1V99H3V97ZM3 84.6L1.63397 83.1392L1 83.732V84.6H3ZM29.2 60.1L30.5661 61.5608L30.5755 61.5519L29.2 60.1ZM34.3 54L36.0744 54.9227L36.0818 54.9086L36.0889 54.8944L34.3 54ZM33.3 43.5L34.5738 41.9581L34.5738 41.9581L33.3 43.5ZM19.4 43.4L20.3383 45.1662L20.348 45.1611L20.3577 45.1558L19.4 43.4ZM14.1 48.4L13.1257 50.1466L14.774 51.0661L15.7873 49.4738L14.1 48.4ZM-0.6 40.2L-2.31276 39.1673L-3.38091 40.9389L-1.57431 41.9466L-0.6 40.2ZM10.9 29.5L9.96752 27.7307L9.96752 27.7307L10.9 29.5ZM42.5 28.2L41.7158 30.0399L41.7265 30.0444L42.5 28.2ZM52.1 35.7L50.4568 36.8402L50.4702 36.8594L50.484 36.8783L52.1 35.7ZM53.1 57.7L51.3042 56.8197L51.3005 56.8271L51.297 56.8345L53.1 57.7ZM43.7 69.1L42.3504 67.6239L42.3425 67.6312L43.7 69.1ZM30.5 81.3L29.1425 79.8312L25.3894 83.3H30.5V81.3ZM55.5 81.3V97H59.5V81.3H55.5ZM57.5 95H3V99H57.5V95ZM5 97V84.6H1V97H5ZM4.36603 86.0608L30.566 61.5608L27.834 58.6392L1.63397 83.1392L4.36603 86.0608ZM30.5755 61.5519C33.1566 59.1066 35.0517 56.8894 36.0744 54.9227L32.5256 53.0773C31.8149 54.4439 30.31 56.2934 27.8245 58.6481L30.5755 61.5519ZM36.0889 54.8944C37.0778 52.9165 37.6 50.8789 37.6 48.8H33.6C33.6 50.1878 33.2555 51.6168 32.5111 53.1056L36.0889 54.8944ZM37.6 48.8C37.6 46.0303 36.6346 43.6605 34.5738 41.9581L32.0262 45.0419C33.0321 45.8728 33.6 47.0364 33.6 48.8H37.6ZM34.5738 41.9581C32.546 40.283 29.7845 39.6 26.6 39.6V43.6C29.2822 43.6 30.9873 44.1837 32.0262 45.0419L34.5738 41.9581ZM26.6 39.6C23.6784 39.6 20.9473 40.2778 18.4423 41.6442L20.3577 45.1558C22.2527 44.1222 24.3216 43.6 26.6 43.6V39.6ZM18.4617 41.6338C15.9989 42.9421 13.9831 44.8585 12.4127 47.3262L15.7873 49.4738C17.0169 47.5415 18.5344 46.1246 20.3383 45.1662L18.4617 41.6338ZM15.0743 46.6534L0.374311 38.4534L-1.57431 41.9466L13.1257 50.1466L15.0743 46.6534ZM1.11276 41.2327C3.64773 37.0284 7.2035 33.7089 11.8325 31.2693L9.96752 27.7307C4.72983 30.4911 0.618937 34.305 -2.31276 39.1673L1.11276 41.2327ZM11.8325 31.2693C16.4245 28.8492 21.9248 27.6 28.4 27.6V23.6C21.4086 23.6 15.2422 24.9508 9.96752 27.7307L11.8325 31.2693ZM28.4 27.6C33.5182 27.6 37.9427 28.4316 41.7158 30.0398L43.2842 26.3602C38.924 24.5017 33.9484 23.6 28.4 23.6V27.6ZM41.7265 30.0444C45.5549 31.6498 48.4339 33.9248 50.4568 36.8402L53.7432 34.5598C51.2327 30.9419 47.7118 28.2169 43.2735 26.3556L41.7265 30.0444ZM50.484 36.8783C52.5481 39.7091 53.6 43.0222 53.6 46.9H57.6C57.6 42.2445 56.3186 38.0909 53.716 34.5217L50.484 36.8783ZM53.6 46.9C53.6 50.396 52.836 53.6947 51.3042 56.8197L54.8958 58.5803C56.6973 54.9053 57.6 51.004 57.6 46.9H53.6ZM51.297 56.8345C49.8595 59.8293 46.9432 63.4249 42.3505 67.6239L45.0495 70.5761C49.7901 66.2418 53.1406 62.2373 54.903 58.5655L51.297 56.8345ZM42.3425 67.6312L29.1425 79.8312L31.8575 82.7688L45.0575 70.5688L42.3425 67.6312ZM30.5 83.3H57.5V79.3H30.5V83.3ZM78.0656 94.1L79.1125 92.3958L79.1125 92.3958L78.0656 94.1ZM67.0656 81.6L65.2555 82.4505L65.2617 82.4637L65.2681 82.4768L67.0656 81.6ZM67.0656 42.5L65.2639 41.6317L65.2595 41.641L67.0656 42.5ZM78.0656 29.9L79.1125 31.6042L79.1125 31.6042L78.0656 29.9ZM109.966 29.9L108.919 31.6042L108.919 31.6042L109.966 29.9ZM120.866 42.5L119.055 43.3505L119.062 43.3637L119.068 43.3768L120.866 42.5ZM120.866 81.6L119.064 80.7317L119.059 80.741L120.866 81.6ZM109.966 94.1L108.919 92.3958L108.919 92.3958L109.966 94.1ZM101.966 77.4L100.26 76.3557L100.254 76.3658L101.966 77.4ZM101.966 46.7L100.244 47.7186L100.257 47.7395L100.27 47.76L101.966 46.7ZM85.9656 46.7L84.2599 45.6557L84.2538 45.6658L85.9656 46.7ZM85.9656 77.4L84.2445 78.4186L84.2568 78.4395L84.2696 78.46L85.9656 77.4ZM94.0656 96.4C88.3987 96.4 83.4345 95.0508 79.1125 92.3958L77.0188 95.8042C82.0301 98.8825 87.7326 100.4 94.0656 100.4V96.4ZM79.1125 92.3958C74.8046 89.7496 71.3823 85.8874 68.8632 80.7232L65.2681 82.4768C68.0823 88.246 71.9933 92.7171 77.0188 95.8042L79.1125 92.3958ZM68.8758 80.7495C66.4264 75.5367 65.1656 69.306 65.1656 62H61.1656C61.1656 69.7606 62.5049 76.5967 65.2555 82.4505L68.8758 80.7495ZM65.1656 62C65.1656 54.693 66.4267 48.4999 68.8718 43.359L65.2595 41.641C62.5046 47.4334 61.1656 54.2403 61.1656 62H65.1656ZM68.8673 43.3683C71.3885 38.1368 74.8109 34.2465 79.1125 31.6042L77.0188 28.1958C71.987 31.2868 68.0761 35.7965 65.2639 41.6317L68.8673 43.3683ZM79.1125 31.6042C83.4345 28.9492 88.3987 27.6 94.0656 27.6V23.6C87.7326 23.6 82.0301 25.1175 77.0188 28.1958L79.1125 31.6042ZM94.0656 27.6C99.6613 27.6 104.593 28.947 108.919 31.6042L111.012 28.1958C106.005 25.1197 100.337 23.6 94.0656 23.6V27.6ZM108.919 31.6042C113.215 34.2435 116.601 38.1276 119.055 43.3505L122.676 41.6495C119.93 35.8058 116.049 31.2898 111.012 28.1958L108.919 31.6042ZM119.068 43.3768C121.574 48.5131 122.866 54.6996 122.866 62H126.866C126.866 54.2337 125.491 47.4202 122.663 41.6232L119.068 43.3768ZM122.866 62C122.866 69.2994 121.574 75.5235 119.064 80.7317L122.667 82.4683C125.491 76.6098 126.866 69.7672 126.866 62H122.866ZM119.059 80.741C116.607 85.8966 113.222 89.7526 108.919 92.3958L111.012 95.8042C116.043 92.7141 119.924 88.2367 122.672 82.459L119.059 80.741ZM108.919 92.3958C104.593 95.053 99.6613 96.4 94.0656 96.4V100.4C100.337 100.4 106.005 98.8803 111.012 95.8042L108.919 92.3958ZM94.0656 84.2C98.1954 84.2 101.435 82.1465 103.677 78.4342L100.254 76.3658C98.63 79.0535 96.6025 80.2 94.0656 80.2V84.2ZM103.671 78.4443C105.965 74.6975 106.966 69.1076 106.966 62H102.966C102.966 68.8924 101.966 73.5692 100.26 76.3557L103.671 78.4443ZM106.966 62C106.966 54.898 105.967 49.3291 103.662 45.64L100.27 47.76C101.964 50.4709 102.966 55.102 102.966 62H106.966ZM103.687 45.6814C101.453 41.9072 98.2156 39.8 94.0656 39.8V43.8C96.5823 43.8 98.6115 44.9594 100.244 47.7186L103.687 45.6814ZM94.0656 39.8C89.8706 39.8 86.5686 41.8848 84.2599 45.6557L87.6713 47.7443C89.3626 44.9819 91.4606 43.8 94.0656 43.8V39.8ZM84.2538 45.6658C82.0295 49.3473 81.0656 54.9042 81.0656 62H85.0656C85.0656 55.0958 86.0351 50.4527 87.6775 47.7342L84.2538 45.6658ZM81.0656 62C81.0656 69.1013 82.0315 74.6794 84.2445 78.4186L87.6868 76.3814C86.0331 73.5872 85.0656 68.8987 85.0656 62H81.0656ZM84.2696 78.46C86.5873 82.1682 89.8904 84.2 94.0656 84.2V80.2C91.4409 80.2 89.344 79.0318 87.6616 76.34L84.2696 78.46Z" transform="translate(44 12)" fill="white"/>
<path d="M36.406 29.7H38.406V27.7H36.406V29.7ZM36.406 106V108H38.406V106H36.406ZM14.824 106H12.824V108H14.824V106ZM14.824 46.377H16.824V44.377H14.824V46.377ZM0.654 46.377H-1.346V48.377H0.654V46.377ZM0.654 29.7V27.7H-1.346V29.7H0.654ZM34.406 29.7V106H38.406V29.7H34.406ZM36.406 104H14.824V108H36.406V104ZM16.824 106V46.377H12.824V106H16.824ZM14.824 44.377H0.654V48.377H14.824V44.377ZM2.654 46.377V29.7H-1.346V46.377H2.654ZM0.654 31.7H36.406V27.7H0.654V31.7ZM108.267 65.779L107.126 64.1363L104.549 65.9258L107.259 67.5066L108.267 65.779ZM116.333 73.3L114.644 74.3711L114.644 74.3711L116.333 73.3ZM115.025 96.19L116.617 97.4002L116.617 97.4002L115.025 96.19ZM103.362 104.583L104.091 106.445L104.091 106.445L103.362 104.583ZM68.6998 104.583L67.971 106.445L68.6998 104.583ZM57.0368 96.19L58.6291 94.9798L58.6291 94.9798L57.0368 96.19ZM55.7288 73.3L54.0398 72.2289L54.0398 72.2289L55.7288 73.3ZM63.7948 65.779L64.8025 67.5066L67.5125 65.9258L64.9356 64.1363L63.7948 65.779ZM57.6908 59.13L55.922 60.0635L55.9321 60.0825L55.9425 60.1013L57.6908 59.13ZM59.4348 38.747L61.0265 39.958L61.0327 39.9498L61.0389 39.9415L59.4348 38.747ZM70.1168 30.899L69.3891 29.0361L69.3791 29.04L70.1168 30.899ZM101.836 30.899L101.098 32.758L101.108 32.7619L101.836 30.899ZM112.627 38.747L111.023 39.9415L111.029 39.9498L111.035 39.958L112.627 38.747ZM114.262 59.13L112.513 58.1587L112.503 58.1775L112.493 58.1965L114.262 59.13ZM79.4908 45.505L80.7646 47.0469L80.7841 47.0308L80.8032 47.0142L79.4908 45.505ZM79.3818 57.277L78.0365 58.7569L78.0715 58.7888L78.108 58.8189L79.3818 57.277ZM92.6798 57.277L93.9536 58.8189L93.9731 58.8028L93.9922 58.7862L92.6798 57.277ZM92.6798 45.505L91.3674 47.0142L91.3865 47.0308L91.406 47.0469L92.6798 45.505ZM94.3148 89.868L95.5843 91.4135L95.5899 91.4088L94.3148 89.868ZM94.3148 76.025L93.0132 77.5435L93.0422 77.5683L93.072 77.592L94.3148 76.025ZM77.6378 76.025L78.9073 77.5705L78.9129 77.5658L77.6378 76.025ZM77.6378 89.868L76.3362 91.3865L76.3652 91.4113L76.395 91.435L77.6378 89.868ZM107.259 67.5066C110.511 69.4035 112.949 71.6987 114.644 74.3711L118.022 72.2289C115.938 68.9427 112.999 66.2238 109.275 64.0514L107.259 67.5066ZM114.644 74.3711C116.311 77.0009 117.167 80.0379 117.167 83.546H121.167C121.167 79.3515 120.133 75.5578 118.022 72.2289L114.644 74.3711ZM117.167 83.546C117.167 87.9287 115.915 91.713 113.432 94.9798L116.617 97.4002C119.657 93.4003 121.167 88.7553 121.167 83.546H117.167ZM113.432 94.9798C110.931 98.2715 107.367 100.868 102.633 102.721L104.091 106.445C109.385 104.374 113.596 101.375 116.617 97.4002L113.432 94.9798ZM102.633 102.721C97.8952 104.574 92.3735 105.526 86.0308 105.526V109.526C92.7682 109.526 98.8004 108.516 104.091 106.445L102.633 102.721ZM86.0308 105.526C79.6882 105.526 74.1664 104.574 69.4286 102.721L67.971 106.445C73.2612 108.516 79.2935 109.526 86.0308 109.526V105.526ZM69.4286 102.721C64.6947 100.868 61.1308 98.2715 58.6291 94.9798L55.4445 97.4002C58.4655 101.375 62.6769 104.374 67.971 106.445L69.4286 102.721ZM58.6291 94.9798C56.1463 91.713 54.8948 87.9287 54.8948 83.546H50.8948C50.8948 88.7553 52.4046 93.4003 55.4445 97.4002L58.6291 94.9798ZM54.8948 83.546C54.8948 80.0379 55.7501 77.0009 57.4178 74.3711L54.0398 72.2289C51.9288 75.5578 50.8948 79.3515 50.8948 83.546H54.8948ZM57.4178 74.3711C59.1125 71.6987 61.5507 69.4035 64.8025 67.5066L62.7871 64.0514C59.063 66.2238 56.1238 68.9427 54.0398 72.2289L57.4178 74.3711ZM64.9356 64.1363C62.5543 62.4825 60.7345 60.4903 59.4391 58.1587L55.9425 60.1013C57.5538 63.0017 59.8034 65.4421 62.654 67.4217L64.9356 64.1363ZM59.4596 58.1965C58.2429 55.8912 57.6198 53.309 57.6198 50.41H53.6198C53.6198 53.9057 54.3774 57.1368 55.922 60.0635L59.4596 58.1965ZM57.6198 50.41C57.6198 46.3889 58.7633 42.9325 61.0265 39.958L57.8431 37.536C55.0197 41.2468 53.6198 45.5657 53.6198 50.41H57.6198ZM61.0389 39.9415C63.3278 36.8679 66.5663 34.4596 70.8545 32.758L69.3791 29.04C64.5113 30.9717 60.6285 33.7954 57.8307 37.5525L61.0389 39.9415ZM70.8445 32.7619C75.2231 31.0515 80.2741 30.174 86.0308 30.174V26.174C79.8702 26.174 74.3118 27.1131 69.3891 29.0361L70.8445 32.7619ZM86.0308 30.174C91.7885 30.174 96.7985 31.0518 101.098 32.758L102.573 29.04C97.7171 27.1129 92.1905 26.174 86.0308 26.174V30.174ZM101.108 32.7619C105.471 34.4661 108.739 36.8753 111.023 39.9415L114.231 37.5525C111.428 33.788 107.502 30.9652 102.564 29.0361L101.108 32.7619ZM111.035 39.958C113.298 42.9325 114.442 46.3889 114.442 50.41H118.442C118.442 45.5657 117.042 41.2468 114.218 37.536L111.035 39.958ZM114.442 50.41C114.442 53.2914 113.79 55.8601 112.513 58.1587L116.01 60.1013C117.64 57.1679 118.442 53.9232 118.442 50.41H114.442ZM112.493 58.1965C111.273 60.5077 109.5 62.4879 107.126 64.1363L109.408 67.4217C112.266 65.4367 114.489 62.9843 116.031 60.0635L112.493 58.1965ZM86.0308 41.325C82.9676 41.325 80.2876 42.1618 78.1784 43.9958L80.8032 47.0142C82.0367 45.9416 83.7167 45.325 86.0308 45.325V41.325ZM78.217 43.9631C76.0039 45.7913 74.9838 48.3661 74.9838 51.391H78.9838C78.9838 49.3293 79.635 47.98 80.7646 47.0469L78.217 43.9631ZM74.9838 51.391C74.9838 54.3359 75.9591 56.8684 78.0365 58.7569L80.7272 55.7971C79.6072 54.779 78.9838 53.3874 78.9838 51.391H74.9838ZM78.108 58.8189C80.2266 60.5691 82.9345 61.348 86.0308 61.348V57.348C83.6044 57.348 81.8796 56.7463 80.6556 55.7351L78.108 58.8189ZM86.0308 61.348C89.1271 61.348 91.835 60.5691 93.9536 58.8189L91.406 55.7351C90.182 56.7463 88.4572 57.348 86.0308 57.348V61.348ZM93.9922 58.7862C96.1538 56.9065 97.1868 54.3657 97.1868 51.391H93.1868C93.1868 53.3577 92.5485 54.7408 91.3674 55.7678L93.9922 58.7862ZM97.1868 51.391C97.1868 48.3661 96.1667 45.7913 93.9536 43.9631L91.406 47.0469C92.5356 47.98 93.1868 49.3293 93.1868 51.391H97.1868ZM93.9922 43.9958C91.8735 42.1535 89.1512 41.325 86.0308 41.325V45.325C88.4331 45.325 90.1434 45.9498 91.3674 47.0142L93.9922 43.9958ZM86.0308 94.375C89.8305 94.375 93.0901 93.4622 95.5843 91.4135L93.0453 88.3225C91.4701 89.6165 89.2071 90.375 86.0308 90.375V94.375ZM95.5899 91.4088C98.1883 89.2584 99.4758 86.3519 99.4758 82.892H95.4758C95.4758 85.2454 94.656 86.9896 93.0397 88.3272L95.5899 91.4088ZM99.4758 82.892C99.4758 79.4314 98.1859 76.5425 95.5576 74.458L93.072 77.592C94.6584 78.8501 95.4758 80.5393 95.4758 82.892H99.4758ZM95.6164 74.5065C93.1216 72.3681 89.8496 71.409 86.0308 71.409V75.409C89.1881 75.409 91.4387 76.1939 93.0132 77.5435L95.6164 74.5065ZM86.0308 71.409C82.208 71.409 78.9179 72.3695 76.3627 74.4842L78.9129 77.5658C80.5724 76.1925 82.8776 75.409 86.0308 75.409V71.409ZM76.3683 74.4795C73.8193 76.5734 72.5858 79.4574 72.5858 82.892H76.5858C76.5858 80.5133 77.387 78.8193 78.9073 77.5705L76.3683 74.4795ZM72.5858 82.892C72.5858 86.3266 73.8175 89.2276 76.3362 91.3865L78.9394 88.3495C77.3888 87.0204 76.5858 85.2707 76.5858 82.892H72.5858ZM76.395 91.435C78.949 93.4606 82.2268 94.375 86.0308 94.375V90.375C82.8588 90.375 80.5413 89.6181 78.8806 88.301L76.395 91.435Z" transform="translate(46 102)" fill="white"/>
</svg>
